<svg width="30" height="30" viewBox="0 0 30 30" fill="none" xmlns="http://www.w3.org/2000/svg">
<path d="M13.4914 3.74785C13.9193 3.40458 14.4514 3.2175 15 3.2175C15.5485 3.2175 16.0807 3.40458 16.5086 3.74785L24.8121 10.4089C25.0937 10.6348 25.3209 10.921 25.4771 11.2465C25.6332 11.5719 25.7143 11.9283 25.7143 12.2893V24.375C25.7143 25.0144 25.4603 25.6275 25.0082 26.0796C24.5561 26.5317 23.9429 26.7857 23.3036 26.7857H20.625C19.9856 26.7857 19.3725 26.5317 18.9204 26.0796C18.4683 25.6275 18.2143 25.0144 18.2143 24.375V17.4107C18.2143 17.1976 18.1296 16.9932 17.9789 16.8425C17.8282 16.6918 17.6238 16.6071 17.4107 16.6071H12.5893C12.3762 16.6071 12.1718 16.6918 12.0211 16.8425C11.8704 16.9932 11.7857 17.1976 11.7857 17.4107V24.375C11.7857 25.0144 11.5317 25.6275 11.0796 26.0796C10.6275 26.5317 10.0144 26.7857 9.37499 26.7857H6.69642C6.05706 26.7857 5.44388 26.5317 4.99179 26.0796C4.53969 25.6275 4.28571 25.0144 4.28571 24.375V12.2893C4.28571 11.5575 4.61785 10.8664 5.18785 10.4089L13.4914 3.74785Z" fill="#1C58F2"/>
</svg>
